<svg width="1441" height="228" viewBox="0 0 1441 228" fill="none" xmlns="http://www.w3.org/2000/svg">
<path d="M56.3339 3.34294L119.158 3.34294L58.0473 231.795H17.497L32.3464 177.538H16.3548L-8.20381 231.795H-46.7551V228.939L56.3339 3.34294ZM30.0619 140.414H45.4824L67.7565 61.8838H64.9008L30.0619 140.414ZM148.364 3.34294L191.199 3.34294L121.521 194.671H157.216L143.795 231.795L65.2645 231.795L148.364 3.34294ZM234.87 3.34294L277.705 3.34294L208.027 194.671H243.722L230.301 231.795H151.771L234.87 3.34294ZM316.421 121.852L323.846 101.863C347.262 38.753 376.675 0.487297 412.371 0.487297C442.355 0.487297 467.199 31.8995 436.929 113.285L429.505 133.275C406.088 196.385 376.675 234.651 340.98 234.651C310.995 234.651 285.866 204.381 316.421 121.852ZM389.811 49.3189L340.98 183.534C337.553 192.958 340.98 198.955 348.404 198.955C355.258 198.955 360.113 193.815 363.539 184.391L412.371 50.1756C415.798 40.752 412.371 34.7551 404.946 34.7551C398.093 34.7551 393.238 39.8953 389.811 49.3189ZM486.719 3.34294L523.843 3.34294L506.423 117.569H509.279L546.688 3.34294L586.667 3.34294L503.568 231.795H466.444L483.578 117.569H480.722L443.599 231.795L403.62 231.795L486.719 3.34294ZM654.208 3.34294L717.032 3.34294L655.921 231.795H615.371L630.22 177.538H614.229L589.67 231.795H551.119V228.939L654.208 3.34294ZM627.936 140.414H643.356L665.63 61.8838H662.775L627.936 140.414ZM746.238 3.34294L787.073 3.34294C819.057 3.34294 841.331 33.0417 822.198 85.3001C813.345 109.573 799.067 126.421 776.508 140.985L766.513 231.795H724.535L739.099 147.553H734.815L705.973 231.795H663.138L746.238 3.34294ZM776.508 37.6107L747.951 116.141H750.521C760.801 116.141 769.083 111.572 773.652 99.5783L787.359 62.7405C794.213 44.4643 787.073 37.6107 778.221 37.6107H776.508ZM860.045 3.34294L898.025 3.34294C934.292 3.34294 955.424 33.6128 940.575 74.4486C930.865 101.292 908.877 115.284 885.746 120.71V123.566C902.309 134.132 911.733 156.406 902.309 182.678C890.03 216.946 857.19 231.795 820.637 231.795L776.946 231.795L860.045 3.34294ZM890.315 37.6107L866.899 101.863H869.755C879.749 101.863 888.602 97.0083 894.313 81.5878L902.023 60.4559C907.735 44.7499 902.595 37.6107 892.6 37.6107H890.315ZM854.334 136.131L832.06 197.527H834.916C844.91 197.527 855.476 192.387 861.188 176.395L866.328 161.832C872.61 144.412 866.899 136.131 856.619 136.131H854.334ZM975.694 3.34294L1018.53 3.34294L935.429 231.795H892.594L975.694 3.34294ZM1026.26 3.34294L1126.2 3.34294L1112.78 40.4664L1084.23 40.4664L1014.55 231.795H971.713L1041.39 40.4664L1012.83 40.4664L1026.26 3.34294ZM1134.59 3.34294L1175.43 3.34294C1207.41 3.34294 1229.69 33.0417 1210.56 85.3001C1201.7 109.573 1187.42 126.421 1164.86 140.985L1154.87 231.795L1112.89 231.795L1127.46 147.553H1123.17L1094.33 231.795H1051.5L1134.59 3.34294ZM1164.86 37.6107L1136.31 116.141H1138.88C1149.16 116.141 1157.44 111.572 1162.01 99.5783L1175.72 62.7405C1182.57 44.4643 1175.43 37.6107 1166.58 37.6107H1164.86ZM1311.23 3.34294L1354.06 3.34294L1291.24 175.253C1276.39 216.089 1256.11 234.651 1224.41 234.651C1195.86 234.651 1173.01 210.663 1191.58 159.547L1248.4 3.34294L1291.24 3.34294L1224.41 186.676C1221.27 195.528 1224.99 200.383 1230.98 200.383C1238.12 200.383 1241.26 194.957 1244.4 186.676L1311.23 3.34294ZM1365.58 3.34294L1410.42 3.34294L1384.15 126.136H1387L1450.4 3.34294L1499.8 3.34294L1416.7 231.795H1379.58L1420.7 126.136H1417.84L1363.87 231.795H1335.31L1357.87 126.136H1355.02L1319.61 231.795L1282.49 231.795L1365.58 3.34294Z" fill="white"/>
</svg>
