<svg width="11" height="10" viewBox="0 0 11 10" fill="none" xmlns="http://www.w3.org/2000/svg">
<path d="M7.33041 0.00770824C8.25052 0.00770824 8.90393 0.246664 9.30397 0.724575C9.70402 1.20249 9.90404 1.91164 9.90404 2.85205V3.63829C9.90404 4.43224 9.76402 5.05661 9.48399 5.5191C9.20396 5.9816 8.75057 6.27451 8.11717 6.40555L10.1641 9.33468C10.2041 9.38093 10.2174 9.45031 10.1974 9.5428C10.1841 9.6353 10.1174 9.68155 10.0041 9.68155H8.46387C8.3572 9.68155 8.29052 9.66614 8.25052 9.64301C8.21051 9.61218 8.17051 9.56593 8.1305 9.50426L6.23696 6.62909H2.36985V9.38093C2.36985 9.58135 2.28317 9.68155 2.10981 9.68155H0.816332C0.629644 9.68155 0.542969 9.58135 0.542969 9.38093V0.416245C0.542969 0.138748 0.662984 0 0.903012 0L7.33041 0.00770824ZM2.38318 4.94098H6.9637C7.37042 4.94098 7.65712 4.84078 7.8238 4.64036C7.99049 4.43995 8.07716 4.13162 8.07716 3.71537V3.13725C8.07716 2.72101 7.99049 2.41268 7.8238 2.21227C7.65712 2.01185 7.37042 1.91164 6.9637 1.91164H2.53653C2.42985 1.91164 2.38318 1.9656 2.38318 2.08123V4.94098Z" fill="#05163D"/>
</svg>
