<svg width="10" height="10" viewBox="0 0 10 10" fill="none" xmlns="http://www.w3.org/2000/svg">
<path d="M7.54127 0.00770824C8.36137 0.00770824 8.9481 0.200414 9.29481 0.578118C9.64151 0.955822 9.81486 1.52623 9.81486 2.28935V2.95226C9.81486 3.72308 9.5615 4.30891 9.04811 4.70974C9.59484 5.07973 9.87487 5.67327 9.87487 6.49034V7.292C9.87487 7.66199 9.84154 7.99345 9.7682 8.28636C9.69485 8.57928 9.5815 8.83365 9.41482 9.04177C9.24813 9.24989 9.03478 9.41177 8.76141 9.51968C8.48805 9.6276 8.15468 9.68926 7.75463 9.68926H0.64715C0.407123 9.68926 0.287109 9.55051 0.287109 9.27302V0.416245C0.287109 0.138748 0.407123 0 0.64715 0L7.54127 0.00770824ZM2.12065 4.03141H7.02788C7.42793 4.03141 7.69462 3.96204 7.84131 3.82329C7.98799 3.68454 8.05467 3.48413 8.05467 3.21434V2.74413C8.05467 2.45893 7.98799 2.25081 7.84797 2.11206C7.70796 1.98102 7.48127 1.91164 7.17456 1.91164H2.28067C2.17399 1.91164 2.12732 1.97331 2.12732 2.08893V4.03141H2.12065ZM2.12065 5.53452V7.59262C2.12065 7.71595 2.17399 7.76991 2.274 7.76991H7.18123C7.50127 7.76991 7.72796 7.70053 7.86131 7.56949C7.99466 7.43845 8.068 7.22262 8.068 6.92971V6.40555C8.068 6.12035 7.99466 5.90451 7.84797 5.75806C7.70129 5.6116 7.42793 5.53452 7.02788 5.53452H2.12065Z" fill="#05163D"/>
</svg>
