<svg width="14" height="10" viewBox="0 0 14 10" fill="none" xmlns="http://www.w3.org/2000/svg">
<path d="M2.78639 0.0078125C2.95975 0.0078125 3.11309 0.023229 3.23977 0.0463537C3.36646 0.0771867 3.4798 0.123436 3.57315 0.208227C3.66649 0.285309 3.75317 0.393225 3.83318 0.524265C3.90652 0.655305 3.98653 0.832595 4.06654 1.05613L6.55349 7.69293C6.58683 7.77772 6.64017 7.81626 6.72018 7.81626H6.86686C6.94687 7.81626 7.00021 7.77772 7.03354 7.69293L9.5205 1.05613C9.60051 0.832595 9.68052 0.655305 9.75386 0.524265C9.8272 0.393225 9.91388 0.285309 10.0139 0.208227C10.1072 0.131144 10.2206 0.0771867 10.3406 0.0463537C10.4673 0.0155207 10.614 0.0078125 10.7873 0.0078125H12.0675C12.4808 0.0078125 12.7609 0.115728 12.9075 0.331559C13.0542 0.54739 13.1209 0.917385 13.1209 1.44155V9.38104C13.1209 9.58145 13.0276 9.68166 12.8475 9.68166H11.6274C11.4541 9.68166 11.3674 9.58145 11.3674 9.38104V2.16612C11.3674 2.07362 11.334 2.02737 11.274 2.02737H11.1674C11.0873 2.02737 11.034 2.06591 11.014 2.13529L8.58706 8.33272C8.49371 8.57938 8.3937 8.79521 8.29369 8.96479C8.19368 9.13437 8.087 9.27312 7.97365 9.38875C7.8603 9.49666 7.72696 9.58145 7.58028 9.6277C7.43359 9.67395 7.26024 9.69708 7.06021 9.69708H6.48682C6.28679 9.69708 6.11344 9.67395 5.96675 9.6277C5.82007 9.58145 5.68672 9.50437 5.57337 9.38875C5.46003 9.28083 5.34669 9.13437 5.25334 8.96479C5.15333 8.79521 5.05332 8.58709 4.95997 8.33272L2.54637 2.13529C2.5197 2.05821 2.47302 2.02737 2.39301 2.02737H2.28634C2.21966 2.02737 2.19299 2.07362 2.19299 2.16612V9.38875C2.19299 9.58916 2.10631 9.68937 1.93296 9.68937H0.712824C0.526136 9.68937 0.439453 9.58916 0.439453 9.38875V1.44925C0.439453 0.925093 0.5128 0.555098 0.652816 0.339267C0.799499 0.123436 1.07953 0.0155207 1.49958 0.0155207H2.78639V0.0078125Z" fill="#05163D"/>
</svg>
