<svg width="12" height="10" viewBox="0 0 12 10" fill="none" xmlns="http://www.w3.org/2000/svg">
<path d="M5.91827 0.00805664C6.2183 0.00805664 6.47833 0.0774309 6.68502 0.223887C6.89171 0.370344 7.0984 0.647841 7.29842 1.06409L11.2589 9.37357C11.2989 9.46607 11.3055 9.54315 11.2855 9.60482C11.2655 9.66649 11.2055 9.69732 11.1122 9.69732H9.59202C9.45867 9.69732 9.36533 9.63565 9.31865 9.52003L8.47189 7.73943H2.85125L2.02449 9.52003C1.97115 9.64336 1.8778 9.69732 1.75112 9.69732H0.19761C0.0909315 9.69732 0.0309246 9.66649 0.0109223 9.60482C-0.00907997 9.54315 -0.00241254 9.46607 0.037592 9.37357L3.96471 1.06409C4.16473 0.647841 4.35809 0.370344 4.55144 0.223887C4.7448 0.0774309 4.96482 0.00805664 5.21818 0.00805664H5.91827ZM3.59133 6.12069H7.7118L5.81159 2.06616C5.77825 2.00449 5.73825 1.96595 5.67824 1.96595H5.6049C5.55156 1.96595 5.50488 1.99678 5.47155 2.06616L3.59133 6.12069Z" fill="#05163D"/>
</svg>
