<svg width="11" height="10" viewBox="0 0 11 10" fill="none" xmlns="http://www.w3.org/2000/svg">
<path d="M2.05937 0.0078125C2.23272 0.0078125 2.3194 0.10802 2.3194 0.308434V5.82754C2.3194 6.19753 2.34607 6.50586 2.39941 6.74482C2.45275 6.99148 2.53942 7.18419 2.65944 7.32293C2.77945 7.46939 2.93947 7.5696 3.14616 7.62356C3.35285 7.68522 3.60622 7.71605 3.91958 7.71605H7.23329C7.54666 7.71605 7.80002 7.68522 8.00671 7.62356C8.2134 7.56189 8.37343 7.46168 8.49344 7.32293C8.61345 7.17648 8.70013 6.98377 8.74681 6.74482C8.79348 6.49815 8.82015 6.19753 8.82015 5.82754V0.308434C8.82015 0.10802 8.90682 0.0078125 9.08018 0.0078125H10.387C10.5603 0.0078125 10.647 0.10802 10.647 0.308434V6.03566C10.647 6.69857 10.587 7.26127 10.467 7.73147C10.347 8.19397 10.1536 8.57167 9.88693 8.86458C9.62024 9.1575 9.27353 9.36562 8.84682 9.49666C8.4201 9.6277 7.9067 9.68937 7.29997 9.68937H3.85291C3.24617 9.68937 2.73278 9.6277 2.31274 9.49666C1.89269 9.36562 1.54598 9.1575 1.27928 8.86458C1.01258 8.57167 0.819228 8.19397 0.692547 7.73147C0.565865 7.26898 0.505859 6.69857 0.505859 6.03566V0.308434C0.505859 0.10802 0.599202 0.0078125 0.779222 0.0078125H2.05937Z" fill="#05163D"/>
</svg>
