<svg xmlns="http://www.w3.org/2000/svg" width="32" height="32" viewBox="90 90 32 32" fill="none">
  <g filter="url(#filter0_b_971_23156)">
    <path d="M116.415 116.42H112.454V110.213C112.454 108.733 112.424 106.828 110.388 106.828C108.324 106.828 108.009 108.439 108.009 110.104V116.42H104.047V103.656H107.852V105.395H107.904C108.436 104.393 109.729 103.334 111.66 103.334C115.673 103.334 116.416 105.976 116.416 109.413V116.42H116.415ZM99.5739 101.91C99.2716 101.91 98.9721 101.851 98.6927 101.736C98.4133 101.62 98.1595 101.45 97.9458 101.237C97.7321 101.023 97.5627 100.769 97.4473 100.489C97.3319 100.21 97.2728 99.9104 97.2734 99.6081C97.2737 99.1531 97.4089 98.7084 97.6619 98.3302C97.915 97.9521 98.2744 97.6575 98.6949 97.4836C99.1154 97.3098 99.578 97.2645 100.024 97.3536C100.47 97.4426 100.88 97.662 101.202 97.9839C101.523 98.3059 101.742 98.7159 101.83 99.1622C101.919 99.6085 101.873 100.071 101.699 100.491C101.524 100.912 101.229 101.271 100.851 101.523C100.472 101.776 100.029 101.91 99.5739 101.91ZM101.559 116.42H97.587V103.656H101.561V116.42H101.559ZM118.398 93.625H95.6C94.5063 93.625 93.625 94.4869 93.625 95.5525V118.448C93.625 119.513 94.5078 120.375 95.5986 120.375H118.393C119.483 120.375 120.375 119.513 120.375 118.448V95.5525C120.375 94.4869 119.483 93.625 118.393 93.625H118.398Z" fill="white"/>
  </g>
  <defs>
    <filter id="filter0_b_971_23156" x="-15" y="-15" width="244" height="244" filterUnits="userSpaceOnUse" color-interpolation-filters="sRGB">
      <feFlood flood-opacity="0" result="BackgroundImageFix"/>
      <feGaussianBlur in="BackgroundImageFix" stdDeviation="7.5"/>
      <feComposite in2="SourceAlpha" operator="in" result="effect1_backgroundBlur_971_23156"/>
      <feBlend mode="normal" in="SourceGraphic" in2="effect1_backgroundBlur_971_23156" result="shape"/>
    </filter>
  </defs>
</svg>