<svg xmlns="http://www.w3.org/2000/svg" width="42" height="42" viewBox="0 0 160 186" fill="none">
    <path d="M159.298 44.8864V75.6274C143.341 75.521 128.559 70.3264 116.48 61.5759L115.686 61.0011V61.9808V126.702C115.686 158.805 89.9987 184.833 58.3257 184.833C46.5164 184.833 35.5184 181.211 26.3949 175.012C11.0631 164.561 0.964844 146.84 0.964844 126.702C0.964844 94.5996 26.6526 68.5711 58.3257 68.5711C60.8232 68.5711 63.2971 68.7165 65.7678 69.0458V75.8011V100.375C63.3686 99.6687 60.8503 99.2877 58.2322 99.2877C43.3268 99.2877 31.2662 111.535 31.2662 126.609C31.2662 137.271 37.2853 146.506 46.0911 151.017L46.0926 151.017C49.7576 152.879 53.876 153.929 58.2322 153.929C73.0901 153.929 85.1507 141.73 85.1982 126.704V126.702V0.5H115.012C115.277 24.903 134.96 44.6196 159.298 44.8864Z" fill="white" />
</svg>