<svg xmlns="http://www.w3.org/2000/svg" width="32" height="22" viewBox="90 96 32 22" fill="none">
  <path
    d="M120.885 99.1208C121.564 101.769 121.564 107.297 121.564 107.297C121.564 107.297 121.564 112.826 120.885 115.474C120.507 116.938 119.403 118.089 118.005 118.479C115.465 119.186 106.703 119.186 106.703 119.186C106.703 119.186 97.9453 119.186 95.401 118.479C93.9967 118.084 92.894 116.933 92.5209 115.474C91.8418 112.826 91.8418 107.297 91.8418 107.297C91.8418 107.297 91.8418 101.769 92.5209 99.1208C92.8984 97.6569 94.0026 96.5052 95.401 96.1158C97.9453 95.4084 106.703 95.4084 106.703 95.4084C106.703 95.4084 115.465 95.4084 118.005 96.1158C119.409 96.5111 120.512 97.6614 120.885 99.1208ZM103.731 112.499L112.647 107.297L103.731 102.096V112.499Z"
    fill="white"
  />
</svg>
