<svg width="729" height="317" viewBox="0 0 729 317" fill="none" xmlns="http://www.w3.org/2000/svg">
<path d="M127.383 0.0462934H168.85L128.514 150.836H101.749L111.55 115.023H100.995L84.7851 150.836H59.3394V148.951L127.383 0.0462934ZM110.042 90.5201H120.221L134.923 38.6861H133.038L110.042 90.5201ZM188.128 0.0462934H215.081C236.192 0.0462934 250.894 19.649 238.265 54.1421C232.422 70.1635 222.998 81.2842 208.107 90.8971L201.51 150.836H173.803L183.415 95.2323H180.588L161.551 150.836H133.278L188.128 0.0462934ZM208.107 22.6647L189.258 74.4987H190.955C197.74 74.4987 203.207 71.4829 206.222 63.5664L215.27 39.2516C219.793 27.1884 215.081 22.6647 209.238 22.6647H208.107ZM263.246 0.0462934H288.315C312.253 0.0462934 326.201 20.0259 316.4 46.9796C309.991 64.6974 295.478 73.9332 280.21 77.5145V79.3993C291.142 86.3734 297.362 101.075 291.142 118.416C283.037 141.035 261.361 150.836 237.235 150.836H208.397L263.246 0.0462934ZM283.226 22.6647L267.77 65.0743H269.655C276.252 65.0743 282.095 61.87 285.865 51.6918L290.954 37.7437C294.724 27.3769 291.331 22.6647 284.734 22.6647H283.226ZM259.477 87.6928L244.775 128.217H246.659C253.256 128.217 260.23 124.825 264 114.269L267.393 104.657C271.54 93.1589 267.77 87.6928 260.984 87.6928H259.477ZM339.58 0.0462934H367.853L313.003 150.836H284.73L339.58 0.0462934ZM372.954 0.0462934H438.924L430.065 24.5496H411.217L365.226 150.836H336.953L382.944 24.5496H364.095L372.954 0.0462934ZM444.463 0.0462934H471.416C492.527 0.0462934 507.229 19.649 494.6 54.1421C488.757 70.1635 479.333 81.2842 464.442 90.8971L457.845 150.836H430.138L439.75 95.2323H436.923L417.886 150.836H389.613L444.463 0.0462934ZM464.442 22.6647L445.593 74.4987H447.29C454.075 74.4987 459.542 71.4829 462.557 63.5664L471.605 39.2516C476.128 27.1884 471.416 22.6647 465.573 22.6647H464.442ZM561.048 0.0462934H589.321L547.854 113.516C538.053 140.469 524.67 152.721 503.748 152.721C484.9 152.721 469.821 136.888 482.072 103.149L519.581 0.0462934H547.854L503.748 121.055C501.675 126.898 504.125 130.102 508.084 130.102C512.796 130.102 514.869 126.521 516.942 121.055L561.048 0.0462934ZM596.927 0.0462934H626.52L609.179 81.0957H611.064L652.908 0.0462934H685.516L630.666 150.836H606.163L633.305 81.0957H631.42L595.796 150.836H576.948L591.838 81.0957H589.953L566.581 150.836H542.077L596.927 0.0462934ZM54.8819 166.046H105.773L96.7261 190.55H74.1076L60.5365 228.247H80.3277L71.2803 252.75H51.4892L37.1641 292.333H59.7826L50.9237 316.836H0.0321966L54.8819 166.046ZM69.1797 316.836L108.95 166.046H136.847L113.286 246.153H115.171L150.041 166.046H177.937V167.931L108.762 316.836H69.1797ZM183.454 166.046H234.346L225.299 190.55H202.68L189.109 228.247H208.9L199.853 252.75H180.062L165.737 292.333H188.355L179.496 316.836H128.605L183.454 166.046ZM240.35 166.046H267.304C288.414 166.046 303.116 185.649 290.488 220.142C284.645 236.163 275.22 247.284 260.33 256.897L253.733 316.836H226.025L235.638 261.232H232.811L213.774 316.836H185.501L240.35 166.046ZM260.33 188.665L241.481 240.499H243.178C249.963 240.499 255.429 237.483 258.445 229.566L267.492 205.252C272.016 193.188 267.304 188.665 261.461 188.665H260.33ZM347.497 166.046H373.885V167.931L320.355 263.117L300.941 316.836H270.783L290.197 263.117L306.407 166.046H332.418L322.051 212.603H323.936L347.497 166.046ZM411.655 166.046H430.504L405.246 250.865H407.131L441.813 166.046H464.997V167.931L402.419 316.836H372.826L391.11 250.865H389.225L359.632 316.836H330.794L377.162 166.046H400.346L373.203 250.865H375.088L411.655 166.046ZM471.376 166.046H498.706L476.088 228.247H488.34L510.958 166.046H538.289L483.439 316.836H456.108L479.481 252.75H467.229L443.857 316.836H416.526L471.376 166.046ZM545.685 166.046H596.576L587.529 190.55H564.91L551.339 228.247H571.13L562.083 252.75H542.292L527.967 292.333H550.585L541.726 316.836H490.835L545.685 166.046ZM602.58 166.046H629.534C650.645 166.046 665.347 185.649 652.718 220.142C646.875 236.163 637.45 247.284 622.56 256.897L615.963 316.836H588.255L597.868 261.232H595.041L576.004 316.836H547.731L602.58 166.046ZM622.56 188.665L603.711 240.499H605.408C612.193 240.499 617.659 237.483 620.675 229.566L629.722 205.252C634.246 193.188 629.534 188.665 623.691 188.665H622.56ZM677.699 166.046H728.591L719.543 190.55H696.925L683.354 228.247H703.145L694.097 252.75H674.306L659.981 292.333H682.6L673.741 316.836H622.849L677.699 166.046Z" fill="white"/>
</svg>
